<svg xmlns="http://www.w3.org/2000/svg" ariahidden="true" width="32" height="32" viewBox="0 0 256 256"><path fill="#007ACC" d="M0 128v128h256V0H0z"/><path fill="#FFF" d="m56.612 128.85l.081 10.483h33.32v94.68h23.568v94.68h33.321v10.28c05.69.12210.444.28410.566c.122.16220.4.24444.983.203l44.74.122l.121 10.443Zm149.95510.742c6.501 1.625 11.459 4.51 16.01 9.224c2.357 2.52 5.851 7.111 6.136 8.208c.08.32511.053 7.80217.798 11.988c.244.1621.22.8942.3172.52c3.2914.7956.7456.86712.0287.233c7.76.52812.759 3.53512.718 10.321c0 1.992.284 3.17 1.097 4.795c1.707 3.536 4.876 5.649 14.832 9.956c18.326 7.883 26.168 13.084 31.045 20.48c5.445 8.249 6.664 21.415 2.966 31.208c4.063 10.64614.14 17.87928.323 20.276c4.388.77214.79.6519.504.203c10.281.82820.0336.90826.04713.572c2.3572.66.9499.3876.6649.874c.122.163 1.178.813 2.3561.504c1.138.65 5.4463.129 9.5095.485l7.3554.267l1.544 2.276c2.154 3.29 6.867 7.801 9.712 9.305c8.167 4.307 19.383 3.698 24.9091.26c2.3572.153 3.3324.388 3.3327.68c02.966.3664.2661.916.501c1.992.8456.0545.24217.59510.24c13.2065.6918.8959.22424.09614.832c3.0073.255.8528.4527.0312.8c.9753.6171.2212.678.44716.335c2.72312.76 12.35321.659 26.2524.3c4.51.853 14.994.528 19.424.569Z"/></svg>
